<?xml version="1.0" encoding="UTF-8"?>
<svg id="Layer_2" data-name="Layer 2" xmlns="http://www.w3.org/2000/svg" viewBox="0 0 217.4 411.79">
  <g id="icons">
    <g>
      <path d="M162.4,46.11c27.02,0,49,21.98,49,49v286.68c0,13.16-10.65,23.88-23.79,24-4.68-.35-59.6-4.46-78.82-4.46s-74.33,4.11-79.01,4.46c-13.14-.11-23.79-10.84-23.79-24V95.11c0-27.02,21.98-49,49-49h107.4M162.4,40.11H55C24.62,40.11,0,64.74,0,95.11v286.68c0,16.57,13.43,30,30,30,0,0,59.1-4.46,78.8-4.46s78.6,4.46,78.6,4.46c16.57,0,30-13.43,30-30V95.11c0-30.38-24.62-55-55-55h0Z"/>
      <path d="M109.26,387.61c-49.15,0-79.2-15.93-79.2-205.9v-14.95c0-63.38-3.98-106.03,48.61-106.03h60.07c55.28,0,48.61,42.65,48.61,106.03v14.95c0,189.96-30.04,205.9-78.09,205.9Z"/>
      <polygon points="186.91 0 186.91 24.19 157.43 24.19 157.43 48.37 138.74 48.37 138.74 72.39 78.67 72.39 78.67 48.37 60.22 48.37 60.22 24.19 29.62 24.19 29.62 0 186.91 0"/>
    </g>
  </g>
</svg>