<?xml version="1.0" encoding="UTF-8"?>
<svg id="Layer_2" data-name="Layer 2" xmlns="http://www.w3.org/2000/svg" viewBox="0 0 217.4 411.79">
  <g id="icons">
    <g>
      <path d="M157.4,46.11c29.78,0,54,24.22,54,54v269.2l-3.51,3.51-32.98,32.98H42.49l-36.49-36.49V100.11c0-29.78,24.22-54,54-54h97.4M157.4,40.11H60C26.86,40.11,0,66.98,0,100.11v271.68c15.62,15.62,24.38,24.38,40,40h137.4c15.62-15.62,24.38-24.38,40-40V100.11c0-33.14-26.86-60-60-60h0Z"/>
      <path d="M109.26,387.61c-98.23,0-98.23-89.67-44.22-205.9v-14.95c-26.99-52.97-38.95-106.03,13.63-106.03h60.07c55.28,0,40.62,53.06,13.63,106.03v14.95c53.99,116.22,53.99,205.9-43.11,205.9Z"/>
      <polygon points="186.91 0 186.91 24.19 157.43 24.19 157.43 48.37 138.74 48.37 138.74 72.39 78.67 72.39 78.67 48.37 60.22 48.37 60.22 24.19 29.62 24.19 29.62 0 186.91 0"/>
    </g>
  </g>
</svg>