<?xml version="1.0" encoding="UTF-8"?>
<svg id="Layer_2" data-name="Layer 2" xmlns="http://www.w3.org/2000/svg" viewBox="0 0 293.91 411.79">
  <g id="icons">
    <g>
      <path d="M229.41,32.5c.07,0,.24,0,.38.19.14.19.09.34.06.41-8.23,25.22-27.84,86.57-32.33,111.4-1.4,7.76-1.69,22.77.05,30.49,11.06,49.12,82.78,176.31,87.2,184.13,4.75,10.18,4.01,21.9-2,31.4-6.05,9.56-16.41,15.27-27.72,15.27H38.85c-11.31,0-21.68-5.71-27.72-15.27-6.01-9.5-6.75-21.23-2-31.4,4.43-7.83,76.15-135,87.21-184.12,1.74-7.72,1.45-22.73.05-30.49-4.49-24.83-24.1-86.18-32.33-111.4-.02-.07-.07-.22.06-.41.14-.19.31-.19.38-.19h164.91M229.41,26.5H64.5c-4.4,0-7.51,4.28-6.15,8.46,7.46,22.87,27.65,85.84,32.13,110.61,1.25,6.91,1.54,21.25,0,28.11C79.37,222.99,3.79,356.36,3.79,356.36c-12.22,25.74,6.56,55.44,35.05,55.44h216.21c28.5,0,47.27-29.69,35.06-55.43,0,0-75.57-133.37-86.68-182.68-1.54-6.85-1.25-21.19,0-28.11,4.48-24.77,24.67-87.74,32.13-110.61,1.36-4.18-1.75-8.46-6.15-8.46h0Z"/>
      <path d="M189.22,184.41c-.94,5.17-1.16,15.9,0,21.04,8.31,36.91,47.43,103.15,64.87,136.72,9.83,18.92-14.79,37.07-26.24,41.49-19.09,7.37-60.68,10.78-81.14,10.77-20.35,0-61.69-3.44-80.67-10.77-11.45-4.42-36.07-22.57-26.24-41.49,17.45-33.57,56.57-99.81,64.88-136.72,1.16-5.13.94-15.86,0-21.04l24.21,3.8c11.97,1.88,24.15,1.88,36.12,0l24.2-3.8Z"/>
      <circle cx="146.95" cy="72.78" r="72.78"/>
    </g>
  </g>
</svg>