<?xml version="1.0" encoding="UTF-8"?>
<svg id="Layer_2" data-name="Layer 2" xmlns="http://www.w3.org/2000/svg" viewBox="0 0 271.05 411.79">
  <g id="icons">
    <g>
      <path d="M189.59,6c-4.24,23.38-17.76,97.97-21.78,120.19-1.49,8.26-1.8,24.22.05,32.42,2.63,11.68,16.46,28.91,42.28,52.69,19.67,18.11,40.94,35.05,51.87,43.54,2.04,1.58,3.17,4.06,3.02,6.63-.85,14.67-3.45,52.42-9.14,85.97-9.61,56.72-20.59,58.36-21.81,58.36H38.75c-1.22,0-12.25-1.63-22.54-58.23-6.09-33.5-9.16-71.29-10.19-85.98-.19-2.63.96-5.16,3.06-6.76,11.16-8.49,32.87-25.44,52.91-43.54,26.29-23.75,40.35-40.98,42.98-52.67,1.85-8.2,1.54-24.16.05-32.43-4.02-22.22-17.54-96.81-21.78-120.19h106.35M196.78,0h-120.72s18.27,100.79,23.06,127.26c1.34,7.39,1.65,22.71,0,30.04-5.42,24.08-73.09,77.1-93.67,92.76-3.7,2.82-5.74,7.31-5.41,11.95,2.2,31.31,12.29,149.79,38.72,149.79h195.34c26.48,0,35.13-118.95,36.94-149.97.26-4.55-1.73-8.92-5.33-11.72-20.09-15.6-86.55-68.7-91.98-92.81-1.65-7.33-1.34-22.65,0-30.04C178.51,100.79,196.78,0,196.78,0h0Z"/>
      <path d="M106.84,181.22c-13.66,13.84-57.59,60.75-73.81,73.09-2.92,2.22-4.52,5.76-4.26,9.42,1.74,24.67,9.94,121.3,30.51,118.03,19.38-3.09,56.63-18.52,76.26-18.56,19.96-.04,57.94,15.46,77.66,18.56,20.61,3.24,27.68-93.73,29.11-118.17.21-3.58-1.36-7.03-4.2-9.23-15.83-12.29-58.87-59.2-72.47-73.13-5.07-5.19-21.26-5.32-28.51-5.36-7.69-.04-24.87-.11-30.27,5.36Z"/>
      <circle cx="136.41" cy="108.81" r="39.73"/>
    </g>
  </g>
</svg>