<?xml version="1.0" encoding="UTF-8"?>
<svg id="Layer_2" data-name="Layer 2" xmlns="http://www.w3.org/2000/svg" viewBox="0 0 374.53 374.53">
  
  <g id="icons">
    <g>
      <path d="M236.05,0h-97.59c-6.94,0-13.79,1.61-20.01,4.7L45.82,40.76c-9.03,4.49-16.3,11.88-20.63,20.98L4.38,105.52c-5.81,12.23-5.81,26.42,0,38.64l20.81,43.78c4.33,9.11,11.59,16.5,20.63,20.98l72.63,36.07c6.22,3.09,13.07,4.7,20.01,4.7h97.59c6.94,0,13.79-1.61,20.01-4.7l72.63-36.07c9.03-4.49,16.3-11.88,20.63-20.98l20.81-43.78c5.81-12.23,5.81-26.42,0-38.64l-20.81-43.78c-4.33-9.11-11.59-16.5-20.63-20.98L256.06,4.7c-6.22-3.09-13.07-4.7-20.01-4.7Z"/>
      <rect fill="none" opacity="0" width="374.53" height="374.53"/>
    </g>
  </g>
</svg>