<?xml version="1.0" encoding="UTF-8"?>
<svg id="Layer_2" data-name="Layer 2" xmlns="http://www.w3.org/2000/svg" viewBox="0 0 374.53 374.53">
  
  <g id="icons">
    <g>
      <rect fill="none" opacity="0" width="374.53" height="374.53"/>
      <path d="M273.91,124.56h-48.42c-9.76,0-19.25,3.17-27.04,9.03l-39.92,30.02c-7.52,5.65-13.07,13.52-15.89,22.49l-15.69,49.97c-2.76,8.78-2.76,18.18,0,26.96l15.69,49.97c2.82,8.97,8.37,16.84,15.89,22.49l39.92,30.02c7.8,5.86,17.29,9.03,27.04,9.03h48.42c9.76,0,19.25-3.17,27.04-9.03l39.92-30.02c7.52-5.65,13.07-13.52,15.89-22.49l15.69-49.97c2.76-8.78,2.76-18.18,0-26.96l-15.69-49.97c-2.82-8.97-8.37-16.84-15.89-22.49l-39.92-30.02c-7.8-5.86-17.29-9.03-27.04-9.03Z"/>
    </g>
  </g>
</svg>