<?xml version="1.0" encoding="UTF-8"?>
<svg id="Layer_2" data-name="Layer 2" xmlns="http://www.w3.org/2000/svg" viewBox="0 0 374.53 374.53">
  
  <g id="icons">
    <g>
      <path d="M205.78,0h-37.03c-12.94,0-25.25,5.57-33.79,15.29l-41.6,47.31c-5.15,5.85-8.68,12.94-10.27,20.57l-19.71,94.95c-1.25,6.03-1.25,12.26,0,18.29l19.71,94.95c1.58,7.63,5.12,14.72,10.27,20.57l41.6,47.31c8.54,9.72,20.86,15.29,33.79,15.29h37.03c12.94,0,25.25-5.57,33.79-15.29l41.6-47.31c5.15-5.85,8.68-12.94,10.27-20.57l19.71-94.95c1.25-6.03,1.25-12.26,0-18.29l-19.71-94.95c-1.58-7.63-5.12-14.72-10.27-20.57l-41.6-47.31c-8.54-9.72-20.86-15.29-33.79-15.29Z"/>
      <rect fill="none" opacity="0" width="374.53" height="374.53"/>
    </g>
  </g>
</svg>