<?xml version="1.0" encoding="UTF-8"?>
<svg id="Layer_2" data-name="Layer 2" xmlns="http://www.w3.org/2000/svg" viewBox="0 0 374.51 374.53">
  <g id="icons">
    <path d="M225.96,0h-77.41c-13.01,0-25.67,4.23-36.07,12.05l-63.64,47.88c-10.02,7.54-17.42,18.02-21.18,29.98L2.75,169.3c-3.67,11.69-3.67,24.23,0,35.92l24.91,79.38c3.75,11.96,11.16,22.45,21.18,29.98l63.64,47.88c10.4,7.82,23.06,12.05,36.07,12.05h77.41c13.01,0,25.67-4.23,36.07-12.05l63.64-47.88c10.02-7.54,17.42-18.02,21.18-29.98l24.91-79.38c3.67-11.69,3.67-24.23,0-35.92l-24.91-79.38c-3.75-11.96-11.16-22.45-21.18-29.98l-63.64-47.88c-10.4-7.82-23.06-12.05-36.07-12.05Z"/>
  </g>
</svg>