<?xml version="1.0" encoding="UTF-8"?>
<svg id="Layer_2" data-name="Layer 2" xmlns="http://www.w3.org/2000/svg" viewBox="0 0 374.53 374.53">
  
  <g id="icons">
    <g>
      <path d="M374.53,246.29v-118.55c0-11.86-3.51-23.45-10.1-33.31l-45.22-67.74c-11.13-16.67-29.85-26.69-49.9-26.69h-39.25c-20.05,0-38.77,10.01-49.9,26.69l-45.22,67.74c-6.58,9.86-10.1,21.45-10.1,33.31v118.55c0,11.86,3.51,23.45,10.1,33.31l45.22,67.74c11.13,16.67,29.85,26.69,49.9,26.69h39.25c20.05,0,38.77-10.01,49.9-26.69l45.22-67.74c6.58-9.86,10.1-21.45,10.1-33.31Z"/>
      <rect fill="none" opacity="0" width="374.53" height="374.53" transform="translate(374.53) rotate(90)"/>
    </g>
  </g>
</svg>