<?xml version="1.0" encoding="UTF-8"?>
<svg id="Layer_2" data-name="Layer 2" xmlns="http://www.w3.org/2000/svg" viewBox="0 0 374.53 374.53">
  <defs>
    <style>
      .cls-1 {
        fill: none;
      }
    </style>
  </defs>
  <g id="icons">
    <g>
      <path d="M246.29,62.42h-118.55c-11.86,0-23.45,3.51-33.31,10.1L26.69,117.74C10.01,128.87,0,147.59,0,167.64v39.25c0,20.05,10.01,38.77,26.69,49.9l67.74,45.22c9.86,6.58,21.45,10.1,33.31,10.1h118.55c11.86,0,23.45-3.51,33.31-10.1l67.74-45.22c16.67-11.13,26.69-29.85,26.69-49.9v-39.25c0-20.05-10.01-38.77-26.69-49.9l-67.74-45.22c-9.86-6.58-21.45-10.1-33.31-10.1Z"/>
      <rect class="cls-1" width="374.53" height="374.53"/>
    </g>
  </g>
</svg>