<?xml version="1.0" encoding="UTF-8"?>
<svg id="Layer_2" data-name="Layer 2" xmlns="http://www.w3.org/2000/svg" viewBox="0 0 374.53 374.53">
  <defs>
    <style>
      .cls-1 {
        fill: none;
      }
    </style>
  </defs>
  <g id="icons">
    <g>
      <rect class="cls-1" width="374.53" height="374.53" transform="translate(374.53) rotate(90)"/>
      <path d="M374.53,157.79v-66.07c0-11.94-4.74-23.38-13.18-31.82l-46.72-46.72c-8.44-8.44-19.88-13.18-31.82-13.18h-66.08c-11.93,0-23.38,4.74-31.82,13.18l-46.72,46.72c-8.44,8.44-13.18,19.89-13.18,31.82v66.07c0,11.94,4.74,23.38,13.18,31.82l46.72,46.72c8.44,8.44,19.88,13.18,31.82,13.18h66.08c11.93,0,23.38-4.74,31.82-13.18l46.72-46.72c8.44-8.44,13.18-19.89,13.18-31.82Z"/>
    </g>
  </g>
</svg>