<?xml version="1.0" encoding="UTF-8"?>
<svg id="Layer_2" data-name="Layer 2" xmlns="http://www.w3.org/2000/svg" viewBox="0 0 374.03 374.03">
  <g id="icons">
    <path d="M239.63,0h-105.22c-15.91,0-31.17,6.32-42.43,17.57L17.57,91.98C6.32,103.23,0,118.49,0,134.4v105.22c0,15.91,6.32,31.17,17.57,42.43l74.4,74.4c11.25,11.25,26.51,17.57,42.43,17.57h105.22c15.91,0,31.17-6.32,42.43-17.57l74.4-74.4c11.25-11.25,17.57-26.51,17.57-42.43v-105.22c0-15.91-6.32-31.17-17.57-42.43l-74.4-74.4C270.8,6.32,255.54,0,239.63,0Z"/>
  </g>
</svg>