<?xml version="1.0" encoding="UTF-8"?>
<svg id="Layer_2" data-name="Layer 2" xmlns="http://www.w3.org/2000/svg" viewBox="0 0 208.29 411.79">
  <g id="icons">
    <g>
      <path d="M69.44,118.39v-34.5s0,0,0,0c-3.04-2.91-3.05-7.77-.02-10.69h0s.03-.02.05-.02h69.38l.02.02c3.03,2.93,3.02,7.78-.02,10.69h0v34.5"/>
      <path d="M132.84,124.39v51.23c0,20.03,10.04,38.9,26.86,50.47,26.67,18.34,42.59,48.59,42.59,80.92,0,22.91-7.98,45.48-22.46,63.55-14.4,17.96-34.25,30.29-55.9,34.72-1.65.34-3.44.49-5.64.49s-4.26-.14-6.55-.29c-2.45-.16-4.98-.33-7.6-.33s-5.26.17-7.76.34c-2.34.16-4.55.3-6.69.3-2.25,0-4.08-.16-5.76-.51-21.47-4.48-41.17-16.77-55.45-34.6-14.37-17.94-22.35-40.37-22.47-63.15-.17-32.66,15.85-63.18,42.86-81.62,16.64-11.37,26.57-30.42,26.57-50.98v-50.53h57.41M138.84,118.39h-69.41v56.53c0,18.33-8.82,35.69-23.96,46.03C17.88,239.8-.18,271.58,0,307.56c.26,50.03,35.61,93.77,82.7,103.59,2.3.48,4.63.64,6.99.64,4.72,0,9.55-.64,14.46-.64h0c4.8,0,9.52.62,14.14.62,2.31,0,4.59-.15,6.84-.62,47.46-9.71,83.16-53.82,83.16-104.14,0-35.64-17.9-67.08-45.19-85.86-15.05-10.35-24.26-27.26-24.26-45.53v-57.23h0Z"/>
      <path d="M82.69,118.39V38.62s-2.38,0-2.38,0v-10.67s4.77-.29,4.77-.29c0,0-.25-5.57.05-7.39,1.03-6.33,1.47-12.73-1.48-18.42l-.95-1.83h42.91l-.98,1.9c-2.93,5.66-2.56,12.03-1.52,18.31.32,1.91.12,7.74.12,7.74h4.77s0,10.67,0,10.67h-2.38s0,79.78,0,79.78"/>
      <path d="M125.6,118.39v91.19c0,14.98,7.33,29.11,19.79,37.43,19.94,13.32,33.07,36.04,33.07,61.83,0,41.39-33.82,74.87-75.33,74.32-40.92-.54-73.95-34.59-73.31-75.5.4-25.3,13.44-47.53,33.08-60.65,12.49-8.34,19.78-22.56,19.78-37.58v-91.03h42.91Z"/>
    </g>
  </g>
</svg>