<?xml version="1.0" encoding="UTF-8"?>
<svg id="Layer_2" data-name="Layer 2" xmlns="http://www.w3.org/2000/svg" viewBox="0 0 258.47 411.79">
  <g id="icons">
    <g>
      <path d="M177.93,118.39v-34.5s0,0,0,0c4.26-2.91,4.28-7.77.03-10.69l-.03-.02h-97.37s-.05,0-.06.02h0c-4.25,2.93-4.24,7.78.03,10.69h0v34.5s97.41,0,97.41,0Z"/>
      <path d="M171.93,124.39v17.6c.03,10.29.02,48.15.02,69.8,0,12.8,8.65,24.05,21.04,27.36,18.99,5.08,43.72,20.02,54.25,38.75,5.29,9.41,6.56,19.02,3.78,28.54-8.62,29.44-16.3,53.25-29.89,69.52-13.35,15.98-32.29,24.73-63.31,29.26-2.59.38-5.36.55-8.74.55-3.08,0-6.18-.15-9.46-.3-3.37-.16-6.85-.32-10.39-.32s-7.18.17-10.62.33c-3.36.16-6.53.31-9.67.31-3.45,0-6.29-.18-8.93-.58-30.77-4.57-49.55-13.33-62.8-29.29-13.48-16.24-21.15-40.05-29.77-69.49-2.78-9.5-1.52-19.07,3.75-28.46,10.5-18.71,35.28-33.69,54.33-38.82,12.36-3.33,20.99-14.57,20.99-27.34,0-22.4,0-59.17,0-69.84v-17.59s85.41,0,85.41,0M177.93,118.39h-97.41v23.59c0,10.67,0,47.44,0,69.84,0,10.11-6.79,18.92-16.55,21.55-27.81,7.49-73.3,37.12-62.28,74.76,18.59,63.49,31.35,93.21,97.44,103.03,3.23.48,6.5.64,9.81.64,6.63,0,13.4-.64,20.29-.64h0c6.73,0,13.36.62,19.85.62,3.24,0,6.44-.15,9.61-.62,66.61-9.71,79.49-39.54,98.09-103.03,11.02-37.63-34.42-67.32-62.24-74.76-9.78-2.62-16.59-11.44-16.59-21.56,0-22.55,0-59.6,0-69.81l-.02-23.59h0Z"/>
      <path d="M159.34,118.39V38.62s3.35,0,3.35,0v-10.67h-6.69s.28-5.83-.16-7.74c-1.46-6.28-1.98-12.65,2.13-18.31l1.38-1.9h-60.23l1.33,1.83c4.14,5.69,3.53,12.1,2.08,18.42-.42,1.82-.07,7.39-.07,7.39l-6.69.29v10.67s3.35,0,3.35,0v79.78s60.23,0,60.23,0Z"/>
      <path d="M159.34,118.39v91.19c0,14.98,10.29,29.11,27.78,37.43,27.99,13.32,56.12,37.94,46.42,61.83-25.48,62.77-47.46,74.87-105.72,74.32-57.43-.54-77.4-11.55-102.89-75.5-9.37-23.51,18.86-47.53,46.43-60.65,17.53-8.34,27.75-22.56,27.75-37.58v-91.03h60.23Z"/>
    </g>
  </g>
</svg>